<?xml version="1.0" encoding="utf-8"?>
<!-- Generator: Adobe Illustrator 18.0.0, SVG Export Plug-In . SVG Version: 6.00 Build 0)  -->
<!DOCTYPE svg PUBLIC "-//W3C//DTD SVG 1.1//EN" "http://www.w3.org/Graphics/SVG/1.1/DTD/svg11.dtd">
<svg version="1.1" id="Layer_1" xmlns="http://www.w3.org/2000/svg" xmlns:xlink="http://www.w3.org/1999/xlink" x="0px" y="0px"
	 viewBox="486.9 397.5 23.2 15.3" enable-background="new 486.9 397.5 23.2 15.3" xml:space="preserve">
<g>
	<path d="M502,400.2l-0.7,0.7l2.1,2.1h-5.6c-1.8,0-3.3,1.5-3.3,3.3v3.2c0,1.3-1,2.3-2.3,2.3h-1.3v1h1.3c1.8,0,3.3-1.5,3.3-3.3v-3.2
		c0-1.3,1.1-2.3,2.3-2.3h5.6l-2.1,2.1l0.7,0.7l3.3-3.3L502,400.2z"/>
	<path d="M508,397.5c-1.2,0-2.1,0.9-2.1,2.1s2.1,3.8,2.1,3.8s2.1-2.7,2.1-3.8S509.2,397.5,508,397.5z M508,400.5c-0.5,0-1-0.4-1-1
		s0.4-1,1-1c0.5,0,1,0.4,1,1S508.5,400.5,508,400.5z"/>
	<path d="M489,406.5c-1.2,0-2.1,0.9-2.1,2.1s2.1,3.8,2.1,3.8s2.1-2.7,2.1-3.8S490.2,406.5,489,406.5z M489,409.5c-0.5,0-1-0.4-1-1
		s0.4-1,1-1c0.5,0,1,0.4,1,1S489.5,409.5,489,409.5z"/>
</g>
</svg>
