<?xml version="1.0" encoding="utf-8"?>
<!-- Generator: Adobe Illustrator 18.0.0, SVG Export Plug-In . SVG Version: 6.00 Build 0)  -->
<!DOCTYPE svg PUBLIC "-//W3C//DTD SVG 1.1//EN" "http://www.w3.org/Graphics/SVG/1.1/DTD/svg11.dtd">
<svg version="1.1" id="Layer_1" xmlns="http://www.w3.org/2000/svg" xmlns:xlink="http://www.w3.org/1999/xlink" x="0px" y="0px"
	 viewBox="392.2 395.7 21.2 19" enable-background="new 392.2 395.7 21.2 19" xml:space="preserve">
<g>
	<g>
		<path d="M393.9,401.8v2.3h1v-2.3c0-1.3,1.1-2.3,2.3-2.3h8.9l-2.1,2.1l0.7,0.7l3.3-3.3l-3.3-3.3l-0.7,0.7l2.1,2.1h-8.9
			C395.4,398.5,393.9,400,393.9,401.8z"/>
		<path d="M409.2,399.1c0,1.2,2.1,3.8,2.1,3.8s2.1-2.7,2.1-3.8s-0.9-2.1-2.1-2.1S409.2,398,409.2,399.1z M411.3,398c0.5,0,1,0.4,1,1
			s-0.4,1-1,1c-0.5,0-1-0.4-1-1S410.7,398,411.3,398z"/>
		<path d="M398.2,411.9h10.3c1.8,0,3.3-1.5,3.3-3.3v-4.3h-1v4.3c0,1.3-1.1,2.3-2.3,2.3h-10.3l2.1-2.1l-0.7-0.7l-3.3,3.3l3.3,3.3
			l0.7-0.7L398.2,411.9z"/>
	</g>
	<path d="M394.3,405.5c-1.2,0-2.1,0.9-2.1,2.1s2.1,3.8,2.1,3.8s2.1-2.7,2.1-3.8S395.5,405.5,394.3,405.5z M394.3,408.5
		c-0.5,0-1-0.4-1-1s0.4-1,1-1c0.5,0,1,0.4,1,1S394.9,408.5,394.3,408.5z"/>
</g>
</svg>
