<?xml version="1.0" encoding="utf-8"?>
<!-- Generator: Adobe Illustrator 18.0.0, SVG Export Plug-In . SVG Version: 6.00 Build 0)  -->
<!DOCTYPE svg PUBLIC "-//W3C//DTD SVG 1.1//EN" "http://www.w3.org/Graphics/SVG/1.1/DTD/svg11.dtd">
<svg version="1.1" id="Layer_1" xmlns="http://www.w3.org/2000/svg" xmlns:xlink="http://www.w3.org/1999/xlink" x="0px" y="0px"
	 viewBox="0 0 54.3 27.6" enable-background="new 0 0 54.3 27.6" xml:space="preserve">
<g>
	<g>
		<path fill="#273747" d="M3.3,17.3h3.4v-1.2H3.3V17.3z M3.3,19.3h3.4v-1.2H3.3V19.3z M3.3,21.4h3.4v-1.2H3.3V21.4z M39.9,21.3
			l-1,0.7l0.1,0.1c0.1,0.1,0.1,0.1,0.1,0.3c0.1,0.2,0.1,0.3,0.1,0.5c0,0.2-0.1,0.5-0.1,0.7c-0.3,0.6-0.8,0.9-1.5,0.9
			c-0.3,0-0.5-0.1-0.8-0.2c-0.1,0-0.1-0.1-0.1-0.1l-0.3,0.5L36,25.1c0.5,0.3,1,0.5,1.6,0.5c1.4,0,2.5-0.9,2.8-2.2
			c0.1-0.2,0.1-0.4,0.1-0.7c0-0.2,0-0.4-0.1-0.5C40.3,22,40.1,21.6,39.9,21.3z M8.6,22.3c-0.1,0.2-0.1,0.4-0.1,0.6
			c0,0.2,0,0.4,0.1,0.6c0.1,0.3,0.2,0.7,0.4,1l0.5-0.3l0.5-0.3l-0.1-0.1c-0.1-0.1-0.1-0.1-0.1-0.2c-0.1-0.2-0.1-0.4-0.1-0.6
			c0-0.2,0.1-0.4,0.1-0.6c0.3-0.6,0.8-1,1.5-1c0.3,0,0.5,0.1,0.8,0.2c0.1,0,0.1,0.1,0.1,0.1l0.5-0.5l0.3-0.5c-0.5-0.3-1-0.5-1.6-0.5
			C10.1,20.1,8.9,21,8.6,22.3z M54.3,6.5V3.5h-3V3.5c-1.2-2-3-3.5-5.5-3.5H1.3v21.4H0v1.2h1.3v0.8h5.2c0.3,2.3,2.3,4.1,4.8,4.1
			c2.5,0,4.5-1.8,4.8-4.1h16.6c0.3,2.3,2.3,4.1,4.8,4.1c2.5,0,4.5-1.8,4.8-4.1h9.3c0.9,0,1.6-0.7,1.6-1.6V11.4c0-2-0.4-4.5-1.4-6.7
			H53v1.8H54.3z M14.9,23.5c-0.3,1.7-1.8,2.9-3.5,2.9c-1.8,0-3.3-1.3-3.5-2.9c-0.1-0.2-0.1-0.4-0.1-0.6c0-0.2,0-0.4,0.1-0.6
			c0.3-1.7,1.8-2.9,3.5-2.9c1.8,0,3.3,1.3,3.5,2.9c0.1,0.2,0.1,0.4,0.1,0.6C14.9,23.1,14.9,23.3,14.9,23.5z M18.2,11.8h-5.9V5.5h5.9
			V11.8z M25.3,22.3h-5.8V13h5.8V22.3z M25.3,11.8h-5.8V5.5h5.8V11.8z M26.5,22.3V13h13v5.5c-0.6-0.3-1.3-0.4-2-0.4
			c-2.4,0-4.5,1.8-4.8,4.1H26.5z M26.5,11.8V5.5h5.9v6.4H26.5z M33.6,11.8V5.5h5.8v6.4H33.6z M41.1,23.5c-0.3,1.7-1.8,2.9-3.5,2.9
			c-1.8,0-3.3-1.3-3.5-2.9C34,23.3,34,23.1,34,22.9c0-0.2,0-0.4,0.1-0.6c0.3-1.7,1.8-2.9,3.5-2.9c1.8,0,3.3,1.3,3.5,2.9
			c0.1,0.2,0.1,0.4,0.1,0.6C41.2,23.1,41.2,23.3,41.1,23.5z M46.6,21.5c0,0.4-0.3,0.8-0.8,0.8h-3.4c-0.1-1.2-0.7-2.2-1.6-2.9V13h5.7
			c0.1,0,0.1,0,0.1,0V21.5z M46.7,6.3L46.7,6.3l-0.1,5.5c0,0.1-0.1,0.1-0.1,0.1h-5.7V5.5h5.2c0.3,0,0.7,0.3,0.7,0.5V6.3z M52.1,21.9
			c0,0.2-0.2,0.4-0.4,0.4h-4.1c0.1-0.3,0.1-0.5,0.1-0.8V6.3l0.1-0.7c0-0.7-0.6-1.3-1.4-1.3H5.2c-0.7,0-1.4,0.6-1.4,1.3v6.1
			c0,0.7,0.6,1.3,1.4,1.3h13v9.3h-2c-0.3-2.3-2.3-4.1-4.8-4.1c-2.5,0-4.5,1.8-4.8,4.1h-4v-21h43.3c1.9,0,3.4,1,4.5,3.1
			c-0.6,0.1-1.1,0.6-1.1,1.3V15c0,0.7,0.6,1.3,1.3,1.3h1.6V21.9z M11.1,5.5v6.3H5.2c-0.1,0-0.1-0.1-0.1-0.1V5.7
			c0-0.1,0.1-0.1,0.1-0.1H11.1z M52.1,11.4V15h-1.6c-0.1,0-0.1-0.1-0.1-0.1V5.5c0-0.1,0.1-0.1,0.1-0.1h0.4
			C51.7,7.5,52.1,9.8,52.1,11.4z"/>
	</g>
</g>
</svg>
