<?xml version="1.0" encoding="utf-8"?>
<!-- Generator: Adobe Illustrator 18.0.0, SVG Export Plug-In . SVG Version: 6.00 Build 0)  -->
<!DOCTYPE svg PUBLIC "-//W3C//DTD SVG 1.1//EN" "http://www.w3.org/Graphics/SVG/1.1/DTD/svg11.dtd">
<svg version="1.1" id="Layer_1" xmlns="http://www.w3.org/2000/svg" xmlns:xlink="http://www.w3.org/1999/xlink" x="0px" y="0px"
	 viewBox="0 0 17 20" enable-background="new 0 0 17 20" xml:space="preserve">
<g>
	<g>
		<path fill="#C7C7C6" d="M16.5,0H5.2C5.1,0,5,0,5,0c-0.1,0-0.1,0.1-0.2,0.1v0L0.2,4.8v0c0,0-0.1,0.1-0.1,0.2C0,5,0,5.1,0,5.1v14.4
			c0,0.2,0.1,0.3,0.2,0.4C0.3,20,0.4,20,0.5,20h16c0.1,0,0.1,0,0.2-0.1c0.2-0.1,0.3-0.3,0.3-0.5v-19C17,0.2,16.8,0,16.5,0z M4.6,1.8
			v2.9H1.8L4.6,1.8z M16,19H1v-7.5c0,0,0,0,0-0.1c0-0.9,0-5.7,0-5.7h4.1c0.3,0,0.5-0.2,0.5-0.5V1H16V19z M8.2,4.5h5.7
			c0.3,0,0.5-0.2,0.5-0.5s-0.2-0.5-0.5-0.5H8.2C8,3.5,7.7,3.7,7.7,4S8,4.5,8.2,4.5z M8.2,7h5.7c0.3,0,0.5-0.2,0.5-0.5
			c0-0.3-0.2-0.5-0.5-0.5H8.2C8,6,7.7,6.2,7.7,6.5C7.7,6.8,8,7,8.2,7z M13.9,8.5H3.6C3.3,8.5,3.1,8.7,3.1,9s0.2,0.5,0.5,0.5h10.3
			c0.3,0,0.5-0.2,0.5-0.5S14.2,8.5,13.9,8.5z M13.9,11H3.6c-0.3,0-0.5,0.2-0.5,0.4c0,0,0,0.1,0,0.1c0,0.2,0.1,0.3,0.2,0.4
			C3.4,12,3.5,12,3.6,12h10.3c0.1,0,0.2,0,0.2-0.1c0.2-0.1,0.3-0.3,0.3-0.5c0,0,0,0,0-0.1C14.4,11.2,14.2,11,13.9,11z M13.9,13.5
			H3.6c-0.3,0-0.5,0.2-0.5,0.4c0,0,0,0.1,0,0.1c0,0.2,0.1,0.3,0.2,0.4c0.1,0.1,0.2,0.1,0.3,0.1h10.3c0.1,0,0.2,0,0.2-0.1
			c0.2-0.1,0.3-0.3,0.3-0.5c0,0,0,0,0-0.1C14.4,13.7,14.2,13.5,13.9,13.5z M13.9,16H3.6c-0.3,0-0.5,0.2-0.5,0.4c0,0,0,0.1,0,0.1
			c0,0.2,0.1,0.3,0.2,0.4C3.4,17,3.5,17,3.6,17h10.3c0.1,0,0.2,0,0.2-0.1c0.2-0.1,0.3-0.3,0.3-0.5c0,0,0,0,0-0.1
			C14.4,16.2,14.2,16,13.9,16z"/>
	</g>
</g>
</svg>
