<?xml version="1.0" encoding="utf-8"?>
<!-- Generator: Adobe Illustrator 16.0.0, SVG Export Plug-In . SVG Version: 6.00 Build 0)  -->
<!DOCTYPE svg PUBLIC "-//W3C//DTD SVG 1.1//EN" "http://www.w3.org/Graphics/SVG/1.1/DTD/svg11.dtd">
<svg version="1.1" id="Capa_1" xmlns="http://www.w3.org/2000/svg" xmlns:xlink="http://www.w3.org/1999/xlink" x="0px" y="0px"
	 width="302.5px" height="302.5px" viewBox="0 0 302.5 302.5" enable-background="new 0 0 302.5 302.5" xml:space="preserve">
<path d="M4.25,151.828c0-19.835,3.86-38.801,11.579-56.898c7.719-18.097,18.122-33.714,31.209-46.853
	c13.087-13.138,28.705-23.592,46.853-31.363C112.04,8.944,131.082,5.059,151.02,5.059c20.04,0,39.185,3.885,57.435,11.656
	c18.251,7.771,33.971,18.225,47.16,31.363c13.188,13.138,23.669,28.756,31.439,46.853c7.771,18.097,11.655,37.063,11.655,56.898
	c0,20.04-3.885,39.159-11.655,57.358s-18.251,33.894-31.439,47.083c-13.189,13.189-28.909,23.695-47.16,31.517
	c-18.25,7.821-37.395,11.732-57.435,11.732c-20.04,0-39.108-3.911-57.205-11.732c-18.097-7.821-33.689-18.327-46.776-31.517
	s-23.49-28.884-31.209-47.083S4.25,171.868,4.25,151.828L4.25,151.828z M28.788,158.116c0.409,14.416,3.451,28.22,9.125,41.408
	c5.674,13.189,13.521,25.05,23.541,35.581c12.065-18.404,26.864-34.303,44.399-47.696s36.833-23.771,57.896-31.133
	c-2.352-4.601-4.806-10.327-7.362-17.177c-37.625,13.292-74.432,19.938-110.422,19.938c-1.738,0-4.499-0.154-8.281-0.461
	C33.9,158.27,30.936,158.116,28.788,158.116L28.788,158.116z M29.708,133.578h16.256c34.66,0,67.838-5.726,99.533-17.177
	c-12.678-23.925-29.548-48.361-50.61-73.308c-17.279,9.202-31.67,21.752-43.172,37.651C40.214,96.643,32.878,114.254,29.708,133.578
	L29.708,133.578z M79.398,252.282c22.8,15.234,46.674,22.852,71.621,22.852c13.803,0,26.787-2.199,38.954-6.595
	c-2.658-30.06-8.69-59.607-18.097-88.645c-18.915,6.236-36.22,15.54-51.914,27.912C104.269,220.178,90.747,235.003,79.398,252.282
	L79.398,252.282z M119.426,34.044c19.018,23.619,35.325,48.054,48.923,73.309c24.743-11.042,47.339-25.51,67.787-43.402
	c-11.35-11.042-24.309-19.528-38.878-25.458c-14.569-5.93-29.982-8.895-46.239-8.895C141.613,29.597,131.082,31.08,119.426,34.044
	L119.426,34.044z M179.238,130.204c0.818,2.147,2.122,5.47,3.911,9.969s3.144,7.771,4.063,9.815
	c16.053-3.067,29.396-4.601,40.028-4.601c12.27,0,27.912,2.147,46.93,6.441c0-23.72-7.259-46.674-21.778-68.86
	C229.184,102.394,204.799,118.14,179.238,130.204L179.238,130.204z M195.495,173.606c8.077,24.64,14.109,52.706,18.097,84.196
	c14.825-8.588,27.299-19.988,37.421-34.199c10.122-14.212,16.973-30.009,20.551-47.391c-15.029-3.578-29.804-5.367-44.322-5.367
	C216.097,170.846,205.515,171.766,195.495,173.606z"/>
</svg>
