<?xml version="1.0" encoding="utf-8"?>
<!-- Generator: Adobe Illustrator 16.0.0, SVG Export Plug-In . SVG Version: 6.00 Build 0)  -->
<!DOCTYPE svg PUBLIC "-//W3C//DTD SVG 1.1//EN" "http://www.w3.org/Graphics/SVG/1.1/DTD/svg11.dtd">
<svg version="1.1" id="Capa_1" xmlns="http://www.w3.org/2000/svg" xmlns:xlink="http://www.w3.org/1999/xlink" x="0px" y="0px"
	 width="302.5px" height="302.5px" viewBox="0 0 302.5 302.5" enable-background="new 0 0 302.5 302.5" xml:space="preserve">
<path d="M151.25,0C67.717,0,0,67.717,0,151.25S67.717,302.5,151.25,302.5S302.5,234.783,302.5,151.25S234.783,0,151.25,0z
	 M238.7,172.236c-5.896,21.616-18.104,39.541-35.307,51.835c-15.381,10.992-34.383,17.019-53.604,17.019
	c-0.327,0-0.65-0.001-0.978-0.005c-41.451-0.44-74.838-27.142-85.059-68.023c-1.139-4.555,1.63-9.169,6.185-10.308
	c4.555-1.137,9.17,1.631,10.308,6.185c4.315,17.261,13.479,31.516,26.501,41.223c11.997,8.943,26.606,13.759,42.247,13.925
	c26.654,0.277,61.844-14.297,73.306-56.322c1.234-4.529,5.903-7.199,10.437-5.964C237.266,163.035,239.936,167.707,238.7,172.236z"
	/>
</svg>
