<?xml version="1.0" encoding="utf-8"?>
<!-- Generator: Adobe Illustrator 16.0.0, SVG Export Plug-In . SVG Version: 6.00 Build 0)  -->
<!DOCTYPE svg PUBLIC "-//W3C//DTD SVG 1.1//EN" "http://www.w3.org/Graphics/SVG/1.1/DTD/svg11.dtd">
<svg version="1.1" id="Capa_1" xmlns="http://www.w3.org/2000/svg" xmlns:xlink="http://www.w3.org/1999/xlink" x="0px" y="0px"
	 width="302.5px" height="302.5px" viewBox="0 0 302.5 302.5" enable-background="new 0 0 302.5 302.5" xml:space="preserve">
<path d="M2.021,163.268c0,24.872,3.73,44.718,11.192,59.537c7.98,15.752,20.364,27.41,37.152,34.976
	c16.996,7.979,34.354,12.902,52.075,14.767c15.959,1.866,33.163,2.799,51.609,2.799c7.978,0,17.979-0.311,30-0.933
	c10.053-0.622,20.752-1.995,32.102-4.119c11.346-2.125,21.114-4.896,29.301-8.316c9.327-3.938,17.928-9.25,25.806-15.933
	c7.875-6.686,13.99-14.432,18.343-23.24c7.253-14.819,10.88-34.665,10.88-59.537c0-28.396-8.135-52.126-24.405-71.195
	c3.213-9.638,4.819-19.742,4.819-30.312c0-13.99-3.006-26.996-9.017-39.018c-12.332,0-23.343,2.176-33.031,6.529
	c-9.69,4.353-21.167,11.71-34.434,22.073c-16.27-3.834-33.057-5.751-50.363-5.751c-18.862,0-37.308,2.072-55.34,6.218
	C85.133,41.138,73.5,33.625,63.811,29.272c-9.689-4.353-20.7-6.529-33.032-6.529c-6.115,11.918-9.172,24.923-9.172,39.018
	c0,10.674,1.606,20.882,4.819,30.623C10.155,111.452,2.021,135.081,2.021,163.268L2.021,163.268z M42.126,194.824
	c0-14.716,4.223-26.997,12.669-36.842c8.446-9.844,19.561-14.768,33.343-14.768c5.493,0,17.151,1.297,34.976,3.887
	c9.12,1.348,18.499,2.021,28.136,2.021s19.068-0.673,28.292-2.021c18.135-2.59,29.794-3.887,34.975-3.887
	c13.783,0,24.871,4.924,33.267,14.768c8.395,9.845,12.592,22.126,12.592,36.842c0,10.467-1.919,19.689-5.753,27.669
	c-3.834,7.67-8.627,13.758-14.378,18.265c-5.751,4.509-13.084,8.11-21.996,10.804c-14.716,4.456-32.022,6.685-51.92,6.685h-30.156
	c-9.845,0-18.758-0.466-26.737-1.398c-8.498-0.83-17.047-2.644-25.649-5.44c-8.601-2.798-15.7-6.322-21.296-10.571
	c-6.114-4.767-11.037-11.114-14.768-19.041C43.991,213.866,42.126,204.876,42.126,194.824z M70.883,194.824
	c0,4.87,0.778,9.792,2.333,14.767c1.554,5.39,4.223,10.027,8.005,13.913c3.782,3.886,8.005,5.83,12.669,5.83
	c4.974,0,9.327-2.021,13.057-6.062c6.529-7.565,9.793-17.048,9.793-28.447c0-4.768-0.674-9.639-2.021-14.612
	c-1.554-5.39-4.224-10.026-8.006-13.912c-3.782-3.887-8.057-5.83-12.824-5.83c-4.974,0-9.327,2.072-13.058,6.219
	C74.2,173.839,70.883,183.218,70.883,194.824z M185.76,194.824c0,4.87,0.776,9.792,2.332,14.767
	c1.554,5.39,4.196,10.027,7.927,13.913c3.731,3.886,7.928,5.83,12.592,5.83c5.078,0,9.482-2.021,13.213-6.062
	c6.528-7.565,9.793-17.048,9.793-28.447c0-4.456-0.726-9.327-2.176-14.612c-1.555-5.39-4.223-10.026-8.006-13.912
	c-3.782-3.887-8.058-5.83-12.824-5.83c-4.975,0-9.224,2.072-12.747,6.219C189.127,173.839,185.76,183.218,185.76,194.824
	L185.76,194.824z"/>
</svg>
