<?xml version="1.0" encoding="utf-8"?>
<!-- Generator: Adobe Illustrator 18.0.0, SVG Export Plug-In . SVG Version: 6.00 Build 0)  -->
<!DOCTYPE svg PUBLIC "-//W3C//DTD SVG 1.1//EN" "http://www.w3.org/Graphics/SVG/1.1/DTD/svg11.dtd">
<svg version="1.1" id="Capa_1" xmlns="http://www.w3.org/2000/svg" xmlns:xlink="http://www.w3.org/1999/xlink" x="0px" y="0px"
	 viewBox="0 -168 532 470.5" enable-background="new 0 -168 532 470.5" xml:space="preserve">
<path id="github-1" opacity="0.6" fill-rule="evenodd" clip-rule="evenodd" fill="#FFFFFF" d="M167.2-23.9C74.9-23.9,0,50.9,0,143.3
	C0,217.2,47.9,279.8,114.4,302c8.4,1.6,11.1-3.6,11.1-8v-31.1c-46.5,10.1-56.2-19.7-56.2-19.7c-7.6-19.3-18.6-24.5-18.6-24.5
	c-15.2-10.4,1.1-10.2,1.1-10.2c16.8,1.2,25.6,17.2,25.6,17.2c14.9,25.6,39.1,18.2,48.7,13.9c1.5-10.8,5.8-18.2,10.6-22.4
	c-37.1-4.2-76.2-18.6-76.2-82.6c0-18.3,6.5-33.2,17.2-44.9c-1.7-4.2-7.5-21.2,1.6-44.3c0,0,14-4.5,46,17.1
	c13.3-3.7,27.6-5.6,41.9-5.6c14.2,0.1,28.5,1.9,41.9,5.6C241,40.9,255,45.4,255,45.4c9.1,23,3.4,40,1.6,44.3
	c10.7,11.7,17.2,26.6,17.2,44.9c0,64.2-39.1,78.4-76.4,82.5c6,5.2,11.5,15.4,11.5,31c0,22.4,0,40.4,0,45.9c0,4.4,2.7,9.7,11.2,8
	c66.4-22.1,114.3-84.8,114.3-158.7C334.4,50.9,259.6-23.9,167.2-23.9z"/>
</svg>
