<?xml version="1.0" encoding="utf-8"?>
<!-- Generator: Adobe Illustrator 18.0.0, SVG Export Plug-In . SVG Version: 6.00 Build 0)  -->
<!DOCTYPE svg PUBLIC "-//W3C//DTD SVG 1.1//EN" "http://www.w3.org/Graphics/SVG/1.1/DTD/svg11.dtd">
<svg version="1.1" id="Layer_1" xmlns="http://www.w3.org/2000/svg" xmlns:xlink="http://www.w3.org/1999/xlink" x="0px" y="0px"
	 viewBox="0 0 20 20" enable-background="new 0 0 20 20" xml:space="preserve">
<g>
	<g>
		<path fill="#C7C7C6" d="M10,0C4.5,0,0,4.5,0,10s4.5,10,10,10s10-4.5,10-10S15.6,0,10,0z M10,18.7c-4.8,0-8.7-3.9-8.7-8.7
			c0-4.8,3.9-8.7,8.7-8.7c4.8,0,8.7,3.9,8.7,8.7C18.7,14.8,14.8,18.7,10,18.7z M10,3.9c-2,0-3.7,1.7-3.7,3.7C6.3,8,6.6,8.3,7,8.3
			S7.6,8,7.6,7.6c0-1.3,1.1-2.4,2.4-2.4c1.3,0,2.4,1.1,2.4,2.4c0,0.7-0.8,1.3-1.5,1.9c-0.8,0.6-1.5,1.2-1.5,2.1v1.7
			c0,0.4,0.3,0.6,0.6,0.6c0.4,0,0.7-0.3,0.7-0.6v-1.7c0-0.2,0.6-0.7,1-1c0.9-0.7,2-1.5,2-2.9C13.7,5.6,12.1,3.9,10,3.9z M10,15
			c-0.5,0-0.8,0.4-0.8,0.8c0,0.5,0.4,0.8,0.8,0.8c0.5,0,0.8-0.4,0.8-0.8C10.9,15.4,10.5,15,10,15z"/>
	</g>
</g>
</svg>
