<?xml version="1.0" encoding="utf-8"?>
<!-- Generator: Adobe Illustrator 18.0.0, SVG Export Plug-In . SVG Version: 6.00 Build 0)  -->
<!DOCTYPE svg PUBLIC "-//W3C//DTD SVG 1.1//EN" "http://www.w3.org/Graphics/SVG/1.1/DTD/svg11.dtd">
<svg version="1.1" id="Layer_1" xmlns="http://www.w3.org/2000/svg" xmlns:xlink="http://www.w3.org/1999/xlink" x="0px" y="0px"
	 viewBox="240 0 800 800" enable-background="new 240 0 800 800" xml:space="preserve">
<path fill="#FFFFFF" d="M543.3,536.7c-76.7,0-136.7-60-136.7-136.7s60-136.7,136.7-136.7c36.7,0,66.7,13.3,90,36.7l-36.7,36.7
	c-10-10-26.7-20-53.3-20c-46.7,0-83.3,40-83.3,86.7s36.7,86.7,83.3,86.7c53.3,0,73.3-40,76.7-60h-76.7v-46.7h130
	c0,6.7,3.3,13.3,3.3,23.3C673.3,480,620,536.7,543.3,536.7z M873.3,420h-60v60h-40v-60h-60v-40h60v-56.7h40v60h60V420z"/>
</svg>
