<?xml version="1.0" encoding="utf-8"?>
<!-- Generator: Adobe Illustrator 18.0.0, SVG Export Plug-In . SVG Version: 6.00 Build 0)  -->
<!DOCTYPE svg PUBLIC "-//W3C//DTD SVG 1.1//EN" "http://www.w3.org/Graphics/SVG/1.1/DTD/svg11.dtd">
<svg version="1.1" id="Layer_1" xmlns="http://www.w3.org/2000/svg" xmlns:xlink="http://www.w3.org/1999/xlink" x="0px" y="0px"
	 viewBox="240 0 800 800" enable-background="new 240 0 800 800" xml:space="preserve">
<path fill="#FFFFFF" d="M843.3,320C850,453.3,750,603.3,570,603.3c-53.3,0-103.3-16.7-146.7-43.3c50,6.7,100-6.7,143.3-40
	c-43.3,0-76.7-30-90-66.7c16.7,3.3,30,3.3,43.3,0c-46.7-6.7-80-50-76.7-93.3c13.3,6.7,26.7,10,43.3,13.3
	c-43.3-30-53.3-83.3-30-126.7c46.7,56.7,116.7,96.7,196.7,100c-13.3-60,30-116.7,93.3-116.7c26.7,0,53.3,10,70,30
	c23.3-3.3,43.3-13.3,60-23.3c-6.7,23.3-23.3,40-43.3,53.3c20-3.3,36.7-6.7,53.3-16.7C876.7,290,860,306.7,843.3,320z"/>
</svg>
