<?xml version="1.0" encoding="utf-8"?>
<!-- Generator: Adobe Illustrator 18.0.0, SVG Export Plug-In . SVG Version: 6.00 Build 0)  -->
<!DOCTYPE svg PUBLIC "-//W3C//DTD SVG 1.1//EN" "http://www.w3.org/Graphics/SVG/1.1/DTD/svg11.dtd">
<svg version="1.1" id="Layer_1" xmlns="http://www.w3.org/2000/svg" xmlns:xlink="http://www.w3.org/1999/xlink" x="0px" y="0px"
	 viewBox="0 0 612 792" enable-background="new 0 0 612 792" xml:space="preserve">
<g>
	<path fill="#FFFFFF" d="M556.4,461.9c0,0-114.2-49.8-123-55.6c-2.9,0-11.7-5.9-11.7-29.3v-32.2c23.4-26.4,41-64.4,41-102.5v-76.1
		C462.7,81.3,392.4,11,307.5,11S149.3,81.2,149.3,166.1v73.2c0,41,14.6,76.1,41,102.5V374c0,23.4-8.8,29.3-11.7,29.3
		c-11.7,5.9-123,55.6-125.9,55.6C20.5,479.5,0,514.6,0,552.7v137.6c0,49.8,41,90.8,90.8,90.8h427.5c49.8,0,90.8-41,90.8-90.8V552.7
		C612,514.6,591.5,479.5,556.4,461.9z M380.7,87.1c17.6,17.6,29.3,38.1,32.2,61.5c-26.4-8.8-43.9-23.4-52.7-35.1
		C366,107.6,374.8,98.8,380.7,87.1z M304.5,57.8c11.7,0,23.4,2.9,35.1,5.9c-32.2,52.7-96.6,76.1-143.5,87.8
		C205,98.8,251.8,57.8,304.5,57.8z M196.2,201.3c35.1-8.8,84.9-23.4,125.9-52.7c20.5,23.4,52.7,43.9,90.8,52.7v41
		c0,58.6-49.8,108.3-108.3,108.3s-108.3-49.8-108.3-111.3v-38H196.2z M304.5,494.1c-38.1,0-73.2-20.5-93.7-52.7
		c11.7-8.8,23.4-29.3,23.4-61.5c20.5,11.7,43.9,17.6,70.3,17.6c23.4,0,46.9-5.9,70.3-17.6c0,32.2,11.7,49.8,23.4,61.5
		C380.7,473.6,345.5,494.1,304.5,494.1z M281.2,731.3H93.7c-26.4,2.9-46.8-17.6-46.8-43.9V549.7c0-20.5,11.7-38.1,26.4-46.9
		c0,0,58.6-26.4,96.6-43.9c23.4,43.9,64.4,73.2,111.3,79.1c0,0,16.7,2.6,46.8,0c46.9-5.9,87.8-35.1,111.3-76.1
		c35.1,14.6,96.6,41,96.6,41c17.6,8.8,29.3,29.3,29.3,49.8l-3,134.7c0,23.4-20.5,43.9-43.9,43.9H328L281.2,731.3z"/>
</g>
</svg>
