<?xml version="1.0" encoding="utf-8"?>
<!-- Generator: Adobe Illustrator 18.0.0, SVG Export Plug-In . SVG Version: 6.00 Build 0)  -->
<!DOCTYPE svg PUBLIC "-//W3C//DTD SVG 1.1//EN" "http://www.w3.org/Graphics/SVG/1.1/DTD/svg11.dtd">
<svg version="1.1" id="Layer_1" xmlns="http://www.w3.org/2000/svg" xmlns:xlink="http://www.w3.org/1999/xlink" x="0px" y="0px"
	 viewBox="0 0 1280 800" enable-background="new 0 0 1280 800" xml:space="preserve">
<g>
	<path d="M892.9,466.6c0,0-115.4-50.3-124.2-56.2c-2.9,0-11.8-6-11.8-29.6v-32.5c23.6-26.7,41.4-65.1,41.4-103.5v-76.9
		c0-85.8-71-156.8-156.8-156.8S481.7,82,481.7,167.8v73.9c0,41.4,14.7,76.9,41.4,103.5v32.5c0,23.6-8.9,29.6-11.8,29.6
		c-11.8,6-124.2,56.2-127.2,56.2c-32.5,20.8-53.2,56.3-53.2,94.7v139c0,50.3,41.4,91.7,91.7,91.7h431.8c50.3,0,91.7-41.4,91.7-91.7
		v-139C949.1,519.8,928.4,484.3,892.9,466.6z M715.5,88c17.8,17.8,29.6,38.5,32.5,62.1c-26.7-8.9-44.3-23.6-53.2-35.5
		C700.6,108.7,709.5,99.8,715.5,88z M638.5,58.4c11.8,0,23.6,2.9,35.5,6c-32.5,53.2-97.6,76.9-144.9,88.7
		C538,99.8,585.3,58.4,638.5,58.4z M529.1,203.3c35.5-8.9,85.8-23.6,127.2-53.2c20.7,23.6,53.2,44.3,91.7,53.2v41.4
		c0,59.2-50.3,109.4-109.4,109.4c-59.1,0-109.4-50.3-109.4-112.4v-38.4H529.1z M638.5,499.1c-38.5,0-73.9-20.7-94.6-53.2
		c11.8-8.9,23.6-29.6,23.6-62.1c20.7,11.8,44.3,17.8,71,17.8c23.6,0,47.4-6,71-17.8c0,32.5,11.8,50.3,23.6,62.1
		C715.5,478.4,679.9,499.1,638.5,499.1z M614.9,738.7H425.6c-26.7,2.9-47.3-17.8-47.3-44.3V555.3c0-20.7,11.8-38.5,26.7-47.4
		c0,0,59.2-26.7,97.6-44.3c23.6,44.3,65.1,73.9,112.4,79.9c0,0,16.9,2.6,47.3,0c47.4-6,88.7-35.5,112.4-76.9
		c35.5,14.7,97.6,41.4,97.6,41.4c17.8,8.9,29.6,29.6,29.6,50.3l-3,136.1c0,23.6-20.7,44.3-44.3,44.3H662.2L614.9,738.7z"/>
</g>
</svg>
