<?xml version="1.0" encoding="utf-8"?>
<!-- Generator: Adobe Illustrator 18.0.0, SVG Export Plug-In . SVG Version: 6.00 Build 0)  -->
<!DOCTYPE svg PUBLIC "-//W3C//DTD SVG 1.1//EN" "http://www.w3.org/Graphics/SVG/1.1/DTD/svg11.dtd">
<svg version="1.1" id="Capa_1" xmlns="http://www.w3.org/2000/svg" xmlns:xlink="http://www.w3.org/1999/xlink" x="0px" y="0px"
	 viewBox="240 204.4 800 594.1" enable-background="new 240 204.4 800 594.1" xml:space="preserve">
<g>
	<g>
		<path fill="#FFFFFF" d="M654.1,624.5c18,0,32.7-14.7,32.7-32.8c0-18-14.7-32.7-32.7-32.7l-148-108.9l115.3,143.6
			C622.3,610.9,636.7,624.5,654.1,624.5z"/>
		<rect x="476.9" y="720.9" fill="#FFFFFF" width="326.3" height="77.5"/>
		<path fill="#FFFFFF" d="M922.8,321.6C847.2,245.9,746.9,204.4,640,204.4s-207.3,41.6-282.8,117.2S240,497.7,240,604.5
			c0,68.9,17.3,135.3,50,193.9h74.7l54.7-31.6L395.3,725L325,765.6c-24.8-48.4-38.9-103.1-38.9-161.1c0-10.3,0.5-20.5,1.2-30.5
			l83.9,14.8l8.4-47.5l-84.8-15c15.2-66.9,49.4-126.7,96.6-173.3l57.5,68.4l37-31.1l-58-69.1c53.1-39.8,117.8-65.2,188-69.8v91.6
			h48.3v-91.6c70.2,4.7,134.8,30,188,69.8l-58,69.1l37,31.1l57.5-68.4c47.2,46.7,81.4,106.4,96.6,173.3l-84.8,15l8.4,47.5l83.9-14.8
			c0.9,10,1.2,20.2,1.2,30.5c0,58-14.1,112.8-38.9,161.1L884.8,725l-24.2,41.9l54.7,31.6H990c32.7-58.6,50-125,50-193.9
			C1040,497.7,998.4,397.2,922.8,321.6z"/>
	</g>
</g>
</svg>
