<?xml version="1.0" encoding="utf-8"?>
<!-- Generator: Adobe Illustrator 18.0.0, SVG Export Plug-In . SVG Version: 6.00 Build 0)  -->
<!DOCTYPE svg PUBLIC "-//W3C//DTD SVG 1.1//EN" "http://www.w3.org/Graphics/SVG/1.1/DTD/svg11.dtd">
<svg version="1.1" id="Capa_1" xmlns="http://www.w3.org/2000/svg" xmlns:xlink="http://www.w3.org/1999/xlink" x="0px" y="0px"
	 viewBox="0 0 512 512" enable-background="new 0 0 512 512" xml:space="preserve">
<g>
	<g>
		<path fill="#FFFFFF" d="M265,399.7c11.5,0,20.9-9.4,20.9-21c0-11.5-9.4-20.9-20.9-20.9l-94.7-69.7l73.8,91.9
			C244.7,391,253.9,399.7,265,399.7z"/>
		<rect x="151.6" y="461.4" fill="#FFFFFF" width="208.8" height="49.6"/>
		<path fill="#FFFFFF" d="M437,205.8c-48.4-48.4-112.6-75-181-75c-68.4,0-132.7,26.6-181,75S0,318.5,0,386.9
			C0,431,11.1,473.5,32,511h47.8l35-20.2L99.4,464l-45,26c-15.9-31-24.9-66-24.9-103.1c0-6.6,0.3-13.1,0.8-19.5l53.7,9.5l5.4-30.4
			l-54.3-9.6c9.7-42.8,31.6-81.1,61.8-110.9l36.8,43.8l23.7-19.9l-37.1-44.2c34-25.5,75.4-41.7,120.3-44.7v58.6h30.9v-58.6
			c44.9,3,86.3,19.2,120.3,44.7l-37.1,44.2l23.7,19.9l36.8-43.8c30.2,29.9,52.1,68.1,61.8,110.9l-54.3,9.6l5.4,30.4l53.7-9.5
			c0.6,6.4,0.8,12.9,0.8,19.5c0,37.1-9,72.2-24.9,103.1l-45-26l-15.5,26.8l35,20.2H480c20.9-37.5,32-80,32-124.1
			C512,318.5,485.4,254.2,437,205.8z"/>
	</g>
</g>
</svg>
