<?xml version="1.0" encoding="utf-8"?>
<!-- Generator: Adobe Illustrator 18.0.0, SVG Export Plug-In . SVG Version: 6.00 Build 0)  -->
<!DOCTYPE svg PUBLIC "-//W3C//DTD SVG 1.1//EN" "http://www.w3.org/Graphics/SVG/1.1/DTD/svg11.dtd">
<svg version="1.1" id="Layer_1" xmlns="http://www.w3.org/2000/svg" xmlns:xlink="http://www.w3.org/1999/xlink" x="0px" y="0px"
	 viewBox="0 0 1280 800" enable-background="new 0 0 1280 800" xml:space="preserve">
<path d="M858.9,286.8h-63.4C777.4,129.8,726.1,0,638.5,0c-84.5,0-138.9,129.8-153.9,286.8h-63.4c-42.2,0-75.5,33.2-75.5,72.4v368.3
	c0,42.2,33.2,75.5,75.5,75.5h437.8c42.2,0,75.5-33.2,75.5-75.5V359.3C934.3,320,901.1,286.8,858.9,286.8z M638.5,48.3
	c42.2,0,90.6,93.5,105.7,238.5H532.8C547.9,141.9,596.3,48.3,638.5,48.3z M886.1,727.6c0,15.1-12.1,27.2-27.2,27.2H421.1
	c-15.1,0-27.2-12.1-27.2-27.2V359.3c0-15.1,12.1-27.2,27.2-27.2h60.4c0,21.1-3,39.3-3,60.4c0,12.1,12.1,24.1,24.1,24.1
	c12.1,0,24.1-9.1,24.1-21.1c0-21.1,0-42.2,3-60.4h223.4c0,21.1,3,39.3,3,60.4c0,12.1,12.1,24.1,24.1,24.1c12,0,24.1-12.1,24.1-24.1
	c0-21.1,0-42.2-3-60.4h60.4c15.1,0,27.2,12.1,27.2,27.2v365.3L886.1,727.6L886.1,727.6z"/>
</svg>
