<?xml version="1.0" encoding="utf-8"?>
<!-- Generator: Adobe Illustrator 18.0.0, SVG Export Plug-In . SVG Version: 6.00 Build 0)  -->
<!DOCTYPE svg PUBLIC "-//W3C//DTD SVG 1.1//EN" "http://www.w3.org/Graphics/SVG/1.1/DTD/svg11.dtd">
<svg version="1.1" id="Layer_1" xmlns="http://www.w3.org/2000/svg" xmlns:xlink="http://www.w3.org/1999/xlink" x="0px" y="0px"
	 viewBox="0 0 612 792" enable-background="new 0 0 612 792" xml:space="preserve">
<path fill="#FFFFFF" d="M522.7,283.9h-62.8C442,128.5,391.2,0,304.5,0C220.8,0,167,128.5,152.1,283.9H89.3
	c-41.8,0-74.7,32.9-74.7,71.7v364.6c0,41.8,32.9,74.7,74.7,74.7h433.4c41.8,0,74.7-32.9,74.7-74.7V355.7
	C597.4,316.8,564.5,283.9,522.7,283.9z M304.5,47.8c41.8,0,89.7,92.6,104.6,236.1H199.9C214.8,140.5,262.7,47.8,304.5,47.8z
	 M549.6,720.3c0,14.9-12,26.9-26.9,26.9H89.3c-14.9,0-26.9-12-26.9-26.9V355.7c0-14.9,12-26.9,26.9-26.9h59.8c0,20.9-3,38.9-3,59.8
	c0,12,12,23.9,23.9,23.9c12,0,23.9-9,23.9-20.9c0-20.9,0-41.8,3-59.8h221.2c0,20.9,3,38.9,3,59.8c0,12,12,23.9,23.9,23.9
	s23.9-12,23.9-23.9c0-20.9,0-41.8-3-59.8h59.8c14.9,0,26.9,12,26.9,26.9v361.6H549.6z"/>
</svg>
