<?xml version="1.0" encoding="utf-8"?>
<!-- Generator: Adobe Illustrator 18.0.0, SVG Export Plug-In . SVG Version: 6.00 Build 0)  -->
<!DOCTYPE svg PUBLIC "-//W3C//DTD SVG 1.1//EN" "http://www.w3.org/Graphics/SVG/1.1/DTD/svg11.dtd">
<svg version="1.1" id="Layer_1" xmlns="http://www.w3.org/2000/svg" xmlns:xlink="http://www.w3.org/1999/xlink" x="0px" y="0px"
	 viewBox="0 0 1280 800" enable-background="new 0 0 1280 800" xml:space="preserve">
<path fill="#273747" d="M892.1,217.8H810v-43.8c0-64.3-47-117.3-108-128.6C676.5,17.3,640.3-1,599.4-1
	c-76.8,0-139.5,62.7-139.5,139.5v79.3h-80.7c-6.9,0-13.3,1.3-19.1,4.1c-0.9,0.4-1.8,0.9-2.7,1.4c-3.3,1.8-5.5,4.4-8.2,6.8
	c-11.8,9.6-20.5,23.5-20.5,39.7v149.1v117.6v107.6V748c0,28,22.4,52,50.6,52h87.5h425.4h27.4c12.1,0,21.9-9.8,21.9-21.9V269.8
	C941.3,242.7,920,217.8,892.1,217.8z M788.2,349.1c12.3,0,21.9,9.3,21.9,21.9c0,12.5-9.6,21.9-21.9,21.9s-21.9-9.3-21.9-21.9
	C766.3,358.5,775.9,349.1,788.2,349.1z M766.3,174.1v43.8h-27.4v-79.3c0-10.7-3.2-21.5-5.5-31.5C753.1,123,766.3,146.3,766.3,174.1z
	 M695.2,138.5v79.3H591.2v-43.8c0-49,38.7-87.5,87.5-87.5C688.5,101.6,695.2,119,695.2,138.5z M503.7,138.5
	c0-53.3,42.5-95.7,95.7-95.7c14,0,26.4,3,38.3,8.2c-51.9,17.6-90.3,65.3-90.3,123.1v43.8h-43.8V138.5z M591.2,371
	c0,12.5-9.6,21.9-21.9,21.9s-21.9-9.3-21.9-21.9c0-12.5,9.6-21.9,21.9-21.9S591.2,358.5,591.2,371z M379.2,756.2
	c-4.2,0-6.8-3.1-6.8-8.2V644.1V536.5V418.9V345c13.8,5,29.9,5,43.8,0v73.9v93v5.5v102.1v1.4V748c0,2.9,0.9,5.4,1.4,8.2H379.2z
	 M416.1,269.8v9.6c-0.1,10-5.7,19-12.3,23.3c-6.7,4.2-12.5,4.2-19.1,0c-6.6-4.2-12.2-13.3-12.3-23.3c0-6.4,2-12.3,4.1-15
	c2.1-2.8,2.5-2.7,2.7-2.7h38.3C417.1,264.4,416.1,266.9,416.1,269.8z M897.6,756.2h-5.5H466.7c-4.2,0-6.8-3.1-6.8-8.2V619.5V511.9
	v-93V279.4c0-6.4,2-12.3,4.1-15c0.6-0.4,0.7-1.2,1.4-1.4c0.3-0.2-0.2-1.3,0-1.4c0.1,0,1.3,0,1.4,0h80.7v35.6v10.9
	c-25.7,9-43.8,34.3-43.8,62.9c0,36.1,29.6,65.7,65.7,65.7c36.1,0,65.7-29.6,65.7-65.7c0-28.6-18.1-53.9-43.8-62.9v-10.9v-35.6h175.1
	v35.6v10.9c-25.7,9-43.8,34.3-43.8,62.9c0,36.1,29.6,65.7,65.7,65.7c36.1,0,65.7-29.6,65.7-65.7c0-28.6-18.1-53.9-43.8-62.9v-10.9
	v-35.6h82.1c1.7,0,5.5,2.2,5.5,8.2V756.2z"/>
</svg>
