<?xml version="1.0" encoding="utf-8"?>
<!-- Generator: Adobe Illustrator 18.0.0, SVG Export Plug-In . SVG Version: 6.00 Build 0)  -->
<!DOCTYPE svg PUBLIC "-//W3C//DTD SVG 1.1//EN" "http://www.w3.org/Graphics/SVG/1.1/DTD/svg11.dtd">
<svg version="1.1" id="Layer_1" xmlns="http://www.w3.org/2000/svg" xmlns:xlink="http://www.w3.org/1999/xlink" x="0px" y="0px"
	 viewBox="0 0 474.3 98.8" enable-background="new 0 0 474.3 98.8" xml:space="preserve">
<g>
	<path fill="#FFFFFF" d="M123.7,29.2c4.1,0,8.1,0,12.1,0c0,2.2,0,4.4,0,6.8c0.5-0.6,0.9-1,1.2-1.3c3.1-3.9,7.2-5.9,12-6.5
		c3.3-0.4,6.5-0.3,9.7,0.8c4.5,1.6,7.4,4.8,9,9.2c1,2.7,1.4,5.5,1.4,8.4c0,10.4,0,31.9,0,31.9h-12.8l0-28.1c0,0,0-3.9-0.8-6.6
		c-1.1-4.9-4.8-6.4-9.1-5.8c-4.3,0.6-6.8,3.4-8.2,7.3c-1.2,3.1-1.5,6.3-1.5,9.6c0,7.4,0,23.6,0,23.6h-12.8
		C123.7,78.6,123.7,45.7,123.7,29.2z"/>
	<path fill="#FFFFFF" d="M57.1,40.2c2.7-9.6,11-13.8,17.7-11.7c0,4.2,0,8.5,0,12.6c-1.7-0.2-3.3-0.6-5-0.7c-4.5-0.3-7.8,1.8-9.4,6
		c-1.3,3.4-1.7,6.9-1.8,10.5c-0.1,6.9,0,21.8,0,21.8s-8.5,0-12.8,0c0-16.5,0-32.9,0-49.4c3.8,0,7.5,0,11.3,0
		C57.1,32.8,57.1,36.5,57.1,40.2z"/>
	<polygon fill="#FFFFFF" points="37.1,78.6 21.8,78.6 21.8,14.4 0,14.4 0,2.3 58.9,2.3 58.9,14.3 37.1,14.3 	"/>
	<path fill="#FFFFFF" d="M215.2,29.2c4.1,0,8.1,0,12.3,0c0,2.3,0,4.6,0,7.1c0.7-0.9,1.1-1.6,1.6-2.2c4-4.8,9.3-6.3,15.2-6.1
		c3.1,0.1,6,0.8,8.7,2.3c4,2.2,6.7,5.6,8.3,9.7c2.2,5.4,2.7,11.1,2.3,16.9c-0.2,3.5-0.8,6.9-2.1,10.1c-2.4,6.2-6.6,10.6-13.2,12.1
		c-4.9,1.1-9.8,1.2-14.4-1.3c-1.6-0.9-5.1-3.8-6-5c0,8.9,0,26,0,26s-8.5,0-12.8,0C215.2,75.7,215.2,52.5,215.2,29.2z M228.1,54.2
		c0.1,3.3,0.7,6.7,2.3,9.9c2.6,5,7.8,7,12.8,4.9c3.3-1.4,4.9-4.3,5.9-7.5c1.3-4.1,1.5-8.3,0.7-12.6c-0.5-2.8-1.3-5.6-3.3-7.8
		c-4.2-4.7-11.6-4.2-15.2,1.2C229,45.8,228.2,49.8,228.1,54.2z"/>
	<path fill="#FFFFFF" d="M376.9,29.1c3.9,0,7.6,0,11.4,0c0,3.2,0,6.2,0,9.4c-3.8,0-7.5,0-11.3,0c0,0.3-0.1,0.5-0.1,0.7
		c0,8,0,16,0.1,23.9c0,1.9,0.5,3.7,1.9,5.1c1.3,1.4,3.1,1.7,4.9,1.5c1.7-0.2,3.3-0.6,5-1c0.1,3.2,0.3,6.5,0.4,10
		c-1.7,0.3-3.2,0.6-4.9,0.8c-3.3,0.4-6.7,0.5-9.9-0.4c-5.8-1.6-9-5.6-10-11.4c-0.3-1.6-0.4-3.2-0.4-4.8c0-7.7,0-15.4,0-23.1
		c0-0.4,0-0.8,0-1.3c-3.2,0-6.3,0-9.4,0c0-3.2,0-6.2,0-9.4c3.1,0,6.2,0,9.3,0c0-3.4,0-6.6,0-9.9c4.3-1.4,8.6-2.8,13-4.2
		C376.9,19.8,376.9,24.4,376.9,29.1z"/>
	<path fill="#FFFFFF" d="M334.6,78.6c-4.3,0-8.5,0-12.8,0c0-16.5,0-32.9,0-49.4c3.8,0,7.5,0,11.4,0c0,3.7,0,7.3,0,10.9
		c1.1-3.9,3.2-7.2,6.5-9.6c3.4-2.5,7.1-3.1,11.2-2.2c0,2.2,0,4.3,0,6.5c0,2.1,0,4.2,0,6.5c-2.1-0.8-4.2-1-6.4-0.9
		c-4.1,0.2-6.6,2.5-8.1,6.1c-1.4,3.4-1.7,6.9-1.8,10.5c-0.1,6.8,0,13.7,0,20.5C334.6,77.8,334.6,78.2,334.6,78.6z"/>
	<path fill="#FFFFFF" d="M163.6,18.8c-5.2,0-8.5-0.9-8.5-6.9c0-1.4,0.3-5.4,0-6.7c-0.3-1.2-4-1.7-6.4,0.5c-1.5,1.4-4.4,5-6.1,6.9
		c-1.8,2.1-1.6,1.4-1.6,1.4s1.2-6.2,1.6-8.4c0.4-2.2,1.3-5.1-1.9-5.1c-3.3,0-3.2,3.2-4.4,4.1c-1.2,0.9-2,0.8-3.7,0.9
		s-5.4-0.1-5.4-0.1c-0.1-1.9-2-3.9-2.8-4.3c-0.8-0.4-1.8,0.4-1.8,0.4S121.9,0,120.8,0c-1.1,0-3.2-0.2-6.1,3.4
		c-2.1,2.7-4.8,7.2-6.9,9.9c-2.7,3.5-5.6,2.9-6.1,2.8c-0.4-0.1-1.1-0.3-1.5-2.3l-0.3-7c0-4.3-2.6-5.2-3.4-5.2c-1.5,0-2.8,0.4-4,2.3
		C91,6.1,87,12.9,86.3,14.2c-0.7,1.2-1.6-0.2-1.6-6.6c0-4.3-2.8-5.2-3.7-5.2c-1.6,0-3,0.4-4.3,2.3c-1.5,2.1-6,8.6-7,10
		c-1,1.4-1,0.5-0.9,0c0.1-0.5,1-4.3,1.6-8.8c0.6-4.5-1.1-4.8-1.8-4.8c-0.6,0-3-0.6-3.7,3.6c-0.6,4.2-1.1,14.7-1.1,16
		c0,1.3,0.4,3.2,2.2,3.3c1.8,0.2,3-0.4,4-1.9c1-1.6,8-12.1,8.4-12.6c0.3-0.5,0.8-1.3,1.3-1.3c0.5,0,0.5,0.3,0.5,1.7
		c0,1.4,0.5,7.8,0.7,9.4c0.2,1.6,1,3.2,2.2,3.2s2.4,0.1,4.6-3.5s4.9-8.2,5.5-9.2c0.6-1,1.1-1.4,1.7-1.4c0.6,0,0.8,1.8,1,5.5
		c0.3,3.6,1,7.6,5.1,7.6c3,0,4.9-1.8,6.4-3.1c1.5-1.3,1-0.9,1.2,0.3c0.1,1,1,3.8,3,4.8c1.5,0.7,3.3,1.1,6.4,0
		c2.2-0.7,4.3-2.1,6.3-4.5c3-3.7,3.7-9.5,3.7-9.5s1.8,0.2,4.6,0.1c2.8-0.1,4.5-0.3,4.5-0.3s-1.6,9.8-1.6,10.9c0,1.1,0,3.5,2.1,3.5
		c1.8,0,2.4-0.3,11.8-11.8c0.4-0.5,0.8,0.1,0.8,0.2c0.2,0.9,0.8,3.6,1.2,5.2c0.6,2.4,2.8,5.8,10.4,5.8c0,0,190.5,0,194.7,0
		c2.1,0,2.3-0.9,2.3-2.3c0-1.4-0.5-2.2-2.3-2.2C352.6,18.8,163.6,18.8,163.6,18.8z M122.3,13.5c-1.9,4.3-4.7,5.8-6.7,5.8
		s-2.2-1.3-1.6-4.6c0.6-3.3,2.9-9.3,7.1-9.3C123,5.3,124.2,9,122.3,13.5z"/>
	<g>
		
			<ellipse transform="matrix(0.8669 0.4984 -0.4984 0.8669 91.2352 -187.5459)" fill="#FFFFFF" cx="396.9" cy="77.1" rx="2.1" ry="2.8"/>
		<path fill="#FFFFFF" d="M473.8,69.6c0,0-0.6,2.2-1.3,3.3c-2.2,3.3-6.7,3-6.7-0.9l-0.1-5c0-3.1-2-3.7-2.5-3.7c-1.1,0-2,0.3-3,1.7
			c-1,1.5-4,6.5-4.5,7.4c-0.5,0.9-1.2-0.1-1.2-4.7c0-3.1-2.1-3.7-2.7-3.7c-1.2,0-2.2,0.3-3.2,1.7c-1.1,1.5-4.4,6.2-5.2,7.2
			c-0.7,1-0.8,0.3-0.7,0c0.1-0.3,0.8-3.1,1.2-6.4c0.4-3.3-0.8-3.5-1.3-3.5c-0.4,0-1.9-0.3-2.6,1.9c-0.9,0.5-1.7,0.9-3.3,1
			c-1.6,0.1-4.2-0.1-4.2-0.1c-0.1-1.3-1.4-2.8-2-3.1c-0.5-0.3-1.3,0.3-1.3,0.3s-0.5-1-1.3-1c-0.8,0-2.3-0.2-4.3,2.4
			c-1.3,1.6-2.8,4.1-4.2,6.1c-4.5,5.2-9.4,6.6-11.4,6.6c-2.1,0-3.2-0.4-3.2-4.1s2.3-6.2,2.8-6.8c0.5-0.6,2.1-2.1,2.2,0.1
			c0.1,2.2,0.6,2.5,1.5,2.5c0.7,0,1.9-1.2,1.9-2.9c0-2.2-1.4-4.7-3-4.7c-3.6,0-7.3,6.3-8.6,10.7c-0.8,2.6-1.4,8,5.6,8
			c1.7,0,3.2-0.3,4.4-0.8c3.5-1.3,6.4-3.6,6.7-3.9c1.1-1,0.7-0.7,0.9,0.2c0.1,0.7,0.7,2.7,2.1,3.4c1,0.5,2.3,0.8,4.5,0
			c1.5-0.5,3.1-1.5,4.5-3.2c2.2-2.6,2.6-6.7,2.6-6.7s1.3,0.1,3.3,0.1c1.5-0.1,2.5-0.3,3.2-0.4c-0.3,3.5-0.5,8-0.5,8.6
			c0,0.9,0.3,2.3,1.6,2.4c1.3,0.1,2.2-0.3,3-1.4c0.8-1.2,5.9-8.7,6.2-9.1c0.2-0.4,0.6-0.9,0.9-0.9c0.4,0,0.4,0.2,0.4,1.2
			c0,1,0.4,5.7,0.5,6.8c0.1,1.2,0.7,2.3,1.6,2.3c0.9,0,1.8,0.1,3.4-2.5s3.6-5.9,4-6.6c0.4-0.7,0.8-1,1.2-1c0.4,0,0.6,1.3,0.8,4
			c0.1,2.7,0.8,5.9,5.2,5.9c2.9,0,6.5-3.6,6.5-7.8C474.3,69.1,473.8,69.6,473.8,69.6z M429.1,71.4c-1.3,3.1-3.4,4.2-4.8,4.2
			s-1.6-1-1.1-3.3c0.4-2.3,2.1-6.6,5.1-6.6C429.7,65.7,430.5,68.3,429.1,71.4z"/>
	</g>
	<path fill="#FFFFFF" d="M317.1,47.1c-2.1-8.8-7.4-14.8-16.1-17.7c-2.9-1-5.9-1.4-8.9-1.4H292c-3,0-6,0.4-8.9,1.4
		c-8.6,2.9-14,8.9-16.1,17.7c-0.5,2.3-0.7,4.7-0.9,5.9c0.1,6.5,1.2,11.5,4.2,16c3.5,5.4,8.6,8.7,14.8,10.1c2.3,0.5,4.6,0.8,6.9,0.8
		v0c0,0,0,0,0,0c0,0,0,0,0,0c2.3,0,4.6-0.3,6.9-0.8c6.2-1.4,11.3-4.6,14.8-10.1c3-4.5,4.1-9.5,4.2-16
		C317.8,51.7,317.7,49.3,317.1,47.1z M302.3,63.7c-2.1,4.3-5.8,6.1-10.2,6.1c-4.4,0-8.1-1.8-10.2-6.1c-2.4-4.9-2.8-10.1-1.7-15.4
		c1.1-5.4,4.7-9.5,10.2-10.2c0.6-0.1,1.1-0.1,1.7-0.1c0.5,0,1.1,0,1.7,0.1c5.6,0.7,9.1,4.8,10.2,10.2
		C305,53.6,304.6,58.8,302.3,63.7z"/>
	<g>
		<path fill="#FFFFFF" d="M207.8,29.5c-3.8-0.5-7.4-1.1-11.1-1.5c-4.6-0.4-9.1,0-13.3,1.9c-3.7,1.6-6.5,4-8,7.8
			c-0.9,2.4-1.1,4.8-0.9,7.4c0.4,4.1,2.1,7.2,5.6,9.4c2.4,1.5,5.2,2.2,7.8,3.1c2.2,0.7,4.4,1.5,6.5,2.6c1.8,0.9,2.6,3,2.3,5
			c-0.4,2.6-2.3,3.9-4.6,4.6c-3.6,1.1-7.2,0.6-10.7-0.5c-1.5-0.4-4.3-1.6-6.5-2.5c0,0,0,9.9,0,10.3c0,0.4,0.4,0.6,0.7,0.7
			c3,0.6,6,1.2,9,1.6c4.5,0.6,9,0.5,13.4-0.8c3.3-1,6.3-2.5,8.6-5.1c2.9-3.3,3.8-7.2,3.5-11.4c-0.3-4.3-2.1-7.9-5.9-10.1
			c-2.1-1.2-4.4-2.1-6.7-3c-2.4-1-4.9-1.7-7.3-2.7c-1.3-0.5-2.2-1.6-2.3-3.1c-0.2-2.6,1.4-4.7,4.3-5.4c3.3-0.8,6.5-0.4,9.7,0.3
			c1.4,0.3,4,1.1,5.9,1.7V29.5z"/>
	</g>
	<g>
		<path fill="#FFFFFF" d="M116.4,41.3c-1.3-6.6-5.2-10.8-11.8-12.4c-3.9-0.9-7.9-1.2-11.9-0.8c-4.6,0.4-9.1,1.5-13.4,3.3
			c-0.5,0.2-0.6,0.6-0.6,1.1s0,10.5,0,10.5c1.1-0.7,2.7-1.7,3.4-2.1c4.7-2.7,9.8-4,15.3-3.2c1.4,0.2,2.9,0.7,4.2,1.3
			c3.2,1.6,4.2,5.9,3.9,9.2c-0.3,0-0.7,0-1.1,0c-2.3,0-4.5,0-6.8,0c-4.5,0.1-9.1,0.4-13.4,1.9c-4,1.4-7.2,3.7-9.2,7.5
			c-1.1,2.1-1.5,4.4-1.6,6.7c-0.2,4.5,1.2,8.2,4.6,11.1c4,3.4,8.8,4.7,14,4.3c4.8-0.4,8.9-2.3,12.1-5.9c0.6-0.6,1.1-1.4,1.6-2.1v6.9
			h11.6V49.4C117.1,49.4,116.9,44,116.4,41.3z M99.4,68.8c-3.3,2-6.9,2-10.4,0.7c-3.5-1.3-4.2-4.7-3.1-7.9c0.8-2.3,2.5-3.8,4.7-4.4
			c2.1-0.6,4.3-1,6.4-1.3c1-0.2,2.1-0.1,3.2-0.1c1.7,0,3.3,0,5.1,0C105.3,61.1,104.3,65.9,99.4,68.8z"/>
	</g>
</g>
</svg>
