<?xml version="1.0" encoding="utf-8"?>
<!-- Generator: Adobe Illustrator 18.0.0, SVG Export Plug-In . SVG Version: 6.00 Build 0)  -->
<!DOCTYPE svg PUBLIC "-//W3C//DTD SVG 1.1//EN" "http://www.w3.org/Graphics/SVG/1.1/DTD/svg11.dtd">
<svg version="1.1" id="Layer_1" xmlns="http://www.w3.org/2000/svg" xmlns:xlink="http://www.w3.org/1999/xlink" x="0px" y="0px"
	 viewBox="0 0 32 20" enable-background="new 0 0 32 20" xml:space="preserve">
<g>
	<g>
		<path fill="#C7C7C6" d="M30,0H2C0.7,0,0,0.7,0,2v16c0,1.3,0.7,2,2,2h28c1.3,0,2-0.7,2-2V2C32,0.7,31.3,0,30,0z M30,18H2V2h28V18z
			 M8,9l3,4l3-4v6h3V5h-3l-3,4L8,5H5v10h3V9z M28,10h-3V5h-3v5h-3l4.5,5L28,10z"/>
	</g>
</g>
</svg>
