<?xml version="1.0" encoding="utf-8"?>
<!-- Generator: Adobe Illustrator 18.0.0, SVG Export Plug-In . SVG Version: 6.00 Build 0)  -->
<!DOCTYPE svg PUBLIC "-//W3C//DTD SVG 1.1//EN" "http://www.w3.org/Graphics/SVG/1.1/DTD/svg11.dtd">
<svg version="1.1" id="Layer_1" xmlns="http://www.w3.org/2000/svg" xmlns:xlink="http://www.w3.org/1999/xlink" x="0px" y="0px"
	 viewBox="0 0 46.5 27.5" enable-background="new 0 0 46.5 27.5" xml:space="preserve">
<g>
	<g>
		<path fill="#273747" d="M40,10.2L35.4,5c-0.5-0.7-3.4-5-6-5h-26C1.5,0,0,1.5,0,3.3v17.2c0,2,1.6,3.6,3.7,3.6h0.5
			c0.3,1.9,2,3.4,4,3.4c2,0,3.7-1.5,4-3.4h20c0.3,1.9,2,3.4,4,3.4s3.7-1.5,4-3.4h2c1.2,0,2.2-0.7,2.7-1.7c0.8-1.7,1.6-3.8,1.6-6.4
			C46.5,13.9,41.7,11.1,40,10.2z M36.2,8V7.9l3,3.4l0.1,0.1c0,0,0.1,0,0.1,0.1h-8.7V8H36.2z M8.2,26.1c-1.5,0-2.7-1.2-2.7-2.7
			c0-1.5,1.2-2.7,2.7-2.7c1.5,0,2.7,1.2,2.7,2.7C10.9,24.9,9.7,26.1,8.2,26.1z M36.2,26.1c-1.5,0-2.7-1.2-2.7-2.7
			c0-1.5,1.2-2.7,2.7-2.7c1.5,0,2.7,1.2,2.7,2.7C38.9,24.9,37.7,26.1,36.2,26.1z M44.4,19.9v-0.5H43v1.3h1c-0.2,0.4-0.3,0.8-0.5,1.1
			c-0.3,0.5-0.8,0.9-1.4,0.9h-2c-0.3-1.9-2-3.4-4-3.4s-3.7,1.5-4,3.4h-20c-0.3-1.9-2-3.4-4-3.4c-2,0-3.7,1.5-4,3.4H3.7
			c-1.3,0-2.3-1-2.3-2.3V3.3c0-1.1,0.9-1.9,2-1.9h26c1.4,0,3.8,2.7,4.9,4.4l0.8,0.9h-4.4c-0.6,0-1.4,0.5-1.4,1.2v3.6
			c0,0.7,0.8,1.2,1.4,1.2h10.8c1.4,1,2.6,1.9,3.2,2.7H43v1.3h2C45,17.9,44.7,19,44.4,19.9z M26.6,6.7H4.1c-0.6,0-1.4,0.5-1.4,1.2
			v3.6c0,0.7,0.8,1.2,1.4,1.2h22.5c0.6,0,1.4-0.5,1.4-1.2V7.9C28,7.2,27.3,6.7,26.6,6.7z M5.5,11.4H4.1V8h1.4V11.4z M12.2,11.4H6.8
			V8h5.4V11.4z M19.8,11.4h-6.1V8h6.1V11.4z M26.6,11.4h-5.5V8h5.5V11.4z M8.2,22.4c-0.6,0-1.1,0.5-1.1,1.1c0,0.6,0.5,1.1,1.1,1.1
			c0.6,0,1.1-0.5,1.1-1.1C9.3,22.9,8.8,22.4,8.2,22.4z M8.2,23.7c-0.1,0-0.3-0.1-0.3-0.3c0-0.1,0.1-0.3,0.3-0.3
			c0.1,0,0.3,0.1,0.3,0.3C8.5,23.6,8.3,23.7,8.2,23.7z M36.2,22.4c-0.6,0-1.1,0.5-1.1,1.1c0,0.6,0.5,1.1,1.1,1.1
			c0.6,0,1.1-0.5,1.1-1.1C37.3,22.9,36.8,22.4,36.2,22.4z M36.2,23.7c-0.1,0-0.3-0.1-0.3-0.3c0-0.1,0.1-0.3,0.3-0.3s0.3,0.1,0.3,0.3
			C36.5,23.6,36.3,23.7,36.2,23.7z M10.9,8.7H9.6v1.3h1.4V8.7z M18.4,8.7h-1.4v1.3h1.4V8.7z M30.1,15.4h2v-1.3h-2V15.4z M20.5,15.4
			h2v-1.3h-2V15.4z"/>
	</g>
</g>
</svg>
