<?xml version="1.0" encoding="utf-8"?>
<!-- Generator: Adobe Illustrator 18.0.0, SVG Export Plug-In . SVG Version: 6.00 Build 0)  -->
<!DOCTYPE svg PUBLIC "-//W3C//DTD SVG 1.1//EN" "http://www.w3.org/Graphics/SVG/1.1/DTD/svg11.dtd">
<svg version="1.1" id="Layer_1" xmlns="http://www.w3.org/2000/svg" xmlns:xlink="http://www.w3.org/1999/xlink" x="0px" y="0px"
	 viewBox="0 0 48 21.5" enable-background="new 0 0 48 21.5" xml:space="preserve">
<g>
	<g>
		<path fill="#273747" d="M18.7,18.7c0.6,0,1.1-0.5,1.1-1c0-0.6-0.5-1-1.1-1s-1.1,0.5-1.1,1C17.6,18.2,18.1,18.7,18.7,18.7z
			 M18.7,17.3c0.2,0,0.4,0.1,0.4,0.3c0,0.2-0.1,0.3-0.4,0.3c-0.2,0-0.4-0.1-0.4-0.3C18.3,17.5,18.5,17.3,18.7,17.3z M47.3,11.3
			c-0.6-0.8-1.3-1.4-2.1-1.5c-0.8-0.1-2.2-0.3-3.5-0.6c-2.2-0.4-3.3-0.6-3.9-0.7l-2.1-3.4c-0.9-1.4-2.3-2.2-3.9-2.3V2.1
			c0-1.2-1-2.1-2.3-2.1h-3.9c-1.3,0-2.3,1-2.3,2.1v0.7h-0.8c-1.9,0-3.7,1-4.5,2.7l-1.4,2.8h-3.1c-2,0-3.5,1.5-3.5,3.5v2.8
			c0,1.9,1.6,3.5,3.5,3.5h1.4c0.2,1.9,1.8,3.5,3.8,3.5c2,0,3.7-1.5,3.8-3.5h13.4v-0.3v-1H22.4c-0.5-1.6-2-2.8-3.7-2.8
			c-1.7,0-3.2,1.2-3.7,2.8h-1.6c-1.2,0-2.1-0.9-2.1-2.1v-2.1h1.4v-1.4h-1.3c0.3-0.8,1-1.4,2-1.4h3.9l1.8-3.6
			c0.6-1.2,1.8-1.9,3.2-1.9h9.1c0.8,0,1.5,0.2,2.1,0.7H23.2c-0.6,0-1.3,0.3-1.6,0.9l-1.1,1.7c-0.3,0.4-0.3,1,0,1.5
			c0.3,0.5,0.7,0.8,1.3,0.8h15.5v0.1c0.3,0.1,2.5,0.4,4.2,0.8c1.3,0.2,2.7,0.5,3.5,0.6c0.3,0,0.8,0.3,1.2,0.9
			c0.1,0.1,0.2,0.3,0.2,0.4h-2v1.4h2.2c0,0.2,0,0.4-0.1,0.6c-0.1,0.6-1.1,2.2-1.5,2.2h-1.5c-0.5-1.6-2-2.8-3.7-2.8
			c-2.1,0-3.9,1.7-3.9,3.8c0,2.1,1.8,3.8,3.9,3.8c2,0,3.7-1.5,3.8-3.5H45c1.6,0,2.7-2.8,2.8-3.3C48.2,13.2,47.8,12,47.3,11.3z
			 M18.7,15.3c1.3,0,2.5,1.1,2.5,2.4c0,1.3-1.1,2.4-2.5,2.4s-2.5-1.1-2.5-2.4C16.2,16.4,17.3,15.3,18.7,15.3z M30.3,2.8h-5.6V2.1
			c0-0.4,0.4-0.7,0.8-0.7h3.9c0.5,0,0.8,0.3,0.8,0.7V2.8z M27.5,8.3h-5.7l-0.1-0.1l1.1-1.7c0.1-0.1,0.3-0.2,0.4-0.2h4.3V8.3z
			 M28.9,8.3V6.2h5.6V5.9L36,8.3H28.9z M39.8,20.1c-1.3,0-2.5-1.1-2.5-2.4c0-1.3,1.1-2.4,2.5-2.4s2.5,1.1,2.5,2.4
			C42.3,19,41.2,20.1,39.8,20.1z M39.8,16.6c-0.6,0-1.1,0.5-1.1,1c0,0.6,0.5,1,1.1,1s1.1-0.5,1.1-1C40.9,17.1,40.4,16.6,39.8,16.6z
			 M39.8,18c-0.2,0-0.4-0.1-0.4-0.3c0-0.2,0.1-0.3,0.4-0.3c0.2,0,0.4,0.1,0.4,0.3C40.2,17.9,40,18,39.8,18z M25.4,11.8v1.4h1.4v-1.4
			H25.4z M26.8,14.6h1.4v-1.4h-1.4V14.6z M28.2,11.8v1.4h1.4v-1.4H28.2z M31,13.2h1.4v-1.4H31V13.2z M29.6,14.6H31v-1.4h-1.4V14.6z
			 M3.5,13.9h4.2v-1.4H3.5V13.9z M6.3,9H0v1.4h6.3V9z M13.4,5.5H3.5v1.4h9.9V5.5z"/>
	</g>
</g>
</svg>
