<?xml version="1.0" encoding="utf-8"?>
<!-- Generator: Adobe Illustrator 16.0.0, SVG Export Plug-In . SVG Version: 6.00 Build 0)  -->
<!DOCTYPE svg PUBLIC "-//W3C//DTD SVG 1.1//EN" "http://www.w3.org/Graphics/SVG/1.1/DTD/svg11.dtd">
<svg version="1.1" id="Capa_1" xmlns="http://www.w3.org/2000/svg" xmlns:xlink="http://www.w3.org/1999/xlink" x="0px" y="0px"
	 width="302.5px" height="302.5px" viewBox="0 0 302.5 302.5" enable-background="new 0 0 302.5 302.5" xml:space="preserve">
<path id="icon" d="M270.925,96.109c3.936,87.572-61.374,185.207-176.972,185.207c-35.161,0-67.888-10.307-95.441-27.972
	c33.032,3.893,66.002-5.271,92.178-25.785c-27.244-0.501-50.239-18.501-58.162-43.237c9.756,1.865,19.354,1.317,28.116-1.066
	c-29.94-6.018-50.611-32.99-49.937-61.836c8.393,4.664,17.994,7.465,28.201,7.788C11.179,110.676,3.33,74.062,19.64,46.082
	c30.708,37.667,76.587,62.457,128.331,65.053c-9.082-38.946,20.464-76.451,60.65-76.451c17.909,0,34.09,7.56,45.446,19.661
	c14.184-2.791,27.507-7.972,39.536-15.107c-4.647,14.539-14.521,26.74-27.376,34.446c12.595-1.502,24.596-4.85,35.761-9.803
	C293.645,76.366,283.092,87.332,270.925,96.109z"/>
</svg>
