<?xml version="1.0" encoding="utf-8"?>
<!-- Generator: Adobe Illustrator 18.0.0, SVG Export Plug-In . SVG Version: 6.00 Build 0)  -->
<!DOCTYPE svg PUBLIC "-//W3C//DTD SVG 1.1//EN" "http://www.w3.org/Graphics/SVG/1.1/DTD/svg11.dtd">
<svg version="1.1" id="Layer_1" xmlns="http://www.w3.org/2000/svg" xmlns:xlink="http://www.w3.org/1999/xlink" x="0px" y="0px"
	 viewBox="0 0 20.9 17" enable-background="new 0 0 20.9 17" xml:space="preserve">
<path fill="#C7C7C6" d="M18.8,4.2c0.3,6-4.2,12.8-12.2,12.8c-2.4,0-4.7-0.7-6.6-1.9c2.3,0.3,4.6-0.4,6.4-1.8
	c-6-0.8-7.8-8.5-4.9-12.5c2.1,2.6,5.3,4.3,8.8,4.5C9.7,2.6,11.7,0,14.5,0c1.2,0,2.4,0.5,3.1,1.4c1-0.2,1.9-0.5,2.7-1
	c-0.3,1-1,1.8-1.9,2.4c0.9-0.1,1.7-0.3,2.5-0.7C20.3,2.9,19.6,3.6,18.8,4.2z"/>
</svg>
