<?xml version="1.0" encoding="utf-8"?>
<!-- Generator: Adobe Illustrator 18.0.0, SVG Export Plug-In . SVG Version: 6.00 Build 0)  -->
<!DOCTYPE svg PUBLIC "-//W3C//DTD SVG 1.1//EN" "http://www.w3.org/Graphics/SVG/1.1/DTD/svg11.dtd">
<svg version="1.1" id="Layer_1" xmlns="http://www.w3.org/2000/svg" xmlns:xlink="http://www.w3.org/1999/xlink" x="0px" y="0px"
	 viewBox="0 0 1280 800" enable-background="new 0 0 1280 800" xml:space="preserve">
<g>
	<polygon fill="#FFFFFF" points="709.2,203.3 709.2,203.3 709.1,203.3 	"/>
	<path fill="#FFFFFF" d="M1072.9,487.7c0,0-115.4-50.3-124.2-56.2c-2.9,0-11.8-27.1-11.8-50.7v-32.5c23.6-26.7,41.4-65.1,41.4-103.5
		v-76.9c0-85.8-71-156.8-156.8-156.8S661.7,82,661.7,167.8v73.9c0,41.4,14.7,76.9,41.4,103.5v32.5c0,23.6-8.9,50.7-11.8,50.7
		c-11.8,6-124.2,55.1-127.2,55.1c-32.5,20.8-53.2,57.4-53.2,95.8v124c0,50.3,41.4,91.7,91.7,91.7h431.8c50.3,0,91.7-41.4,91.7-91.7
		v-124C1129.1,540.9,1108.4,505.4,1072.9,487.7z M709.1,153.1c8.9-53.3,56.2-94.7,109.4-94.7c11.8,0,23.6,2.9,35.5,6
		c0,0,16.8,6.8,22,10.3S895.5,88,895.5,88c17.8,17.8,29.6,38.5,32.5,62.1v94.6c0,59.2-50.3,109.4-109.4,109.4
		c-59.1,0-109.4-50.3-109.4-112.4v-38.4h-0.1h0.1L709.1,153.1z M1078.9,700.5c0,23.6-20.7,44.3-44.3,44.3h-429
		c-26.7,2.9-47.3-17.8-47.3-44.3V574.4c0-20.7,11.8-38.5,26.7-47.4c0,0,59.2-26.7,97.6-44.3c26.2-10.9,33.7-10.4,41.3-15.7
		c11.8-8.9,23.6-50.7,23.6-83.2c20.7,11.8,44.3,17.8,71,17.8c23.6,0,47.4-6,71-17.8c0,32.5,11.8,71.4,23.6,83.2
		c20.9,13.4,17.9,11.1,41.6,20.7c35.5,14.7,97.6,41.4,97.6,41.4c17.8,8.9,29.6,29.6,29.6,50.3L1078.9,700.5z"/>
	<path fill="#FFFFFF" d="M709.2,203.3L709.2,203.3L709.2,203.3z"/>
</g>
</svg>
