<?xml version="1.0" encoding="utf-8"?>
<!-- Generator: Adobe Illustrator 18.0.0, SVG Export Plug-In . SVG Version: 6.00 Build 0)  -->
<!DOCTYPE svg PUBLIC "-//W3C//DTD SVG 1.1//EN" "http://www.w3.org/Graphics/SVG/1.1/DTD/svg11.dtd">
<svg version="1.1" id="Layer_1" xmlns="http://www.w3.org/2000/svg" xmlns:xlink="http://www.w3.org/1999/xlink" x="0px" y="0px"
	 viewBox="0 253 1280 294" enable-background="new 0 253 1280 294" xml:space="preserve">
<path id="Naming" fill="#FFFFFF" d="M288.3,364.4c-5.4,4.4-7.4,9.7-5.9,15.9c7.5,34.7,15.7,62.4,24.5,82.9c0.3,1.5,0.9,2.7,1.7,3.8
	c6.8,14.6,14.9,23.4,24,26.4c1.8,0.8,3.6,1.1,5.4,1.1c8.3,0.3,15.1-2.9,20.2-10c1.4-1.8,2.9-3.8,4.4-6c4.7-7.2,10.7-21,18-41.1
	c6.9-21.1,12.2-40.8,16.3-58.7c0.8-4.1-0.3-7.7-3.2-11c-4.4-5.4-9.7-7.4-15.9-6l-2.1,1.1c-5.9,2.3-9.1,6.9-9.8,14.3
	c-9.1,34.7-17.7,60.7-25.7,77.9c-0.8,2.3-1.5,2.7-2.1,1.7l-4.4-8.8c-6.6-16.2-13.9-41.5-21.9-76.3l-1.1-2.3c-3-5.4-7.4-8-13.6-7.7
	C293.7,361.3,290.8,362.3,288.3,364.4z M456,465.8c-17.1,0-25.7-11.5-25.7-34.6V429c0-15.7,3.9-26.1,11.9-31.3
	c4.4-2.9,8.9-4.4,13.6-4.4c17.8,0,26.7,11.9,26.7,35.6C482.7,453.6,473.7,465.8,456,465.8z M486.5,373.1c-8.8-5.9-18.9-8.8-30.5-8.8
	c-10.9,0-20.7,3-29.4,9.2c-16.3,11-24.5,29.4-24.5,55.4c-0.3,24.5,6.3,42.7,20.2,54.4c9.8,7.2,21,11,33.8,11
	c11.2,0,21.4-2.9,30.5-8.8c16.3-11,24.6-29.9,24.6-56.6C511,404.2,502.8,385.7,486.5,373.1z M543.7,375.8
	c-14.2,11.8-21.3,29.3-21.3,52.7c0,27.5,8.3,46.5,25.1,57.1c8.3,5.9,18.1,8.8,29.4,8.8c11.2,0,21.4-3.2,30.5-9.4
	c4.7-2.4,7.1-6.8,7.1-12.5c-0.8-5.9-3.6-10-8.8-12.5c-5.1-2.6-9.8-2-14.2,1.7c-4.1,2.6-8.9,3.9-14.8,3.9c-5.4,0-10.1-1.2-14.2-3.9
	c-7.7-5.1-11.5-15.9-11.5-32.5v-0.6c0-15.4,3.9-25.8,12.1-31.3c4.4-2.6,8.9-3.9,13.6-3.9c5.7,0,10.7,1.2,14.8,3.3
	c4.4,3.3,9.1,3.8,14.2,1.7c5.1-2.4,8-6.8,8.8-12.5c0-5.4-2.4-9.8-7.1-13.1c-9.1-5.9-19.3-8.8-30.5-8.8
	C563.8,363.9,552.8,367.8,543.7,375.8z M667.3,400c2.1-0.8,4.1-1.1,5.9-1.1c7.2,0,13,3.3,16.9,9.8c2.6,4.8,3.6,15.6,3.3,32.5
	c-1.1,12.1-5.3,19.6-12.5,22.5c-2.6,0.8-5.9,0.9-10.4,0.6c-7.2-1.1-12.4-5.1-15.3-12.1c-0.8-1.5-1.1-2.9-1.1-4.4
	c-3-11.3-3-22.5,0-33.5C655.6,407.1,660,402.3,667.3,400z M718.4,493.9c2.6-3.3,3.9-8.6,3.9-15.9v-56c-1.1-17.2-7.1-30.7-18-40.5
	c-2.9-2.6-6-4.8-9.2-6.6c-6.9-3.6-13.9-5.4-20.7-5.4c-16.5,0-29.6,6.9-39.9,20.8c-11.3,16.9-14.3,37.3-9.2,61.5
	c3.3,15.4,10.9,26.9,23,34.6c2.9,1.8,6,3.5,9.2,5c13.4,4.4,25.8,3.6,37.1-2.3c2.1,5.9,6.5,8.9,13.1,9.4
	C712,498.6,715.6,497.1,718.4,493.9z M768.3,480.2V329.8c0-6.5-2.9-11.2-8.8-13.7c-1.4-0.8-3.3-1.2-5.4-1.2
	c-5.7,0-10.1,2.7-13.1,8.3c-0.8,1.8-1.1,4.1-1.1,6.5v150.2c0,5.9,2.7,10.1,8.2,12.7c1.8,0.8,3.8,1.1,5.9,1.1
	c6.2,0,10.6-2.7,13.1-8.2C768,483.8,768.3,482,768.3,480.2z M982.7,452.7c-1.1-2.9-1.7-6.6-1.7-11v-17.5c0-15.4,3.8-24.8,11.5-28.5
	c3.3-1.8,6.6-2.6,10.4-2.3h1.7l5.9,1.2c11.2,5.1,16.9,16.6,16.9,34.6c0,15.7-4.1,26.6-12.1,32.5c-3.6,2.6-7.2,3.9-10.9,3.9
	C992.5,463.6,985.3,459.3,982.7,452.7z M1006.1,365v-0.6h-1.7c-9.1-0.8-17.7,1.1-25.7,5.4c-12.4,6.6-20.4,18.6-24,35.6
	c-1.5,5.9-2.1,12.1-2.1,18.6v106.5c0,5.4,2.1,9.7,6.6,12.5c5.1,2.9,10.1,2.9,15.3,0c4.4-3,6.5-7.1,6.5-12.5v-41.7
	c8,3.6,15.9,5.4,23.6,5.4c10.6-1.1,19.5-4.1,26.7-8.8c13.4-9.2,21.6-23.7,24.6-43.3c0.3-3.9,0.6-8.5,0.6-13.1c0-26-8.5-44.5-25.1-56
	C1023.5,367.7,1015.2,365,1006.1,365z M934.1,493.9c5.4-4.4,7.4-9.7,5.9-15.9c-7.5-34.6-15.7-61.9-24.3-82.3
	c-0.3-1.5-0.9-2.7-1.7-3.8c-6.8-14.5-14.8-23.3-23.9-26.3c-1.8-0.8-3.6-1.1-5.4-1.1c-8.3-0.3-14.9,2.9-20.1,9.8
	c-1.4,1.8-2.9,3.8-4.2,6c-4.7,7.2-10.7,20.8-18,40.9c-6.8,21-12.2,40.5-16.3,58.4c-0.8,3.9,0.3,7.5,3.2,10.9
	c4.4,5.4,9.5,7.4,15.7,5.9l2.1-1.1c5.9-2.1,9.1-6.9,9.8-14.2c9.1-34.6,17.7-60.2,25.5-77.3c0.8-2.3,1.5-2.7,2.1-1.7l4.4,8.8
	c6.5,16,13.7,41.2,21.7,75.8l1.1,2.1c2.9,5.4,7.4,8,13.6,7.7C928.6,497.1,931.5,496,934.1,493.9z M1227.5,363.5
	c-18.7-0.3-32.5,5.4-40.8,17.2c-5,6.3-7.2,13.4-7.2,21.7c-0.8,12.7,3.5,22.8,12.7,30.5c8.5,8.2,21.9,11.8,40.5,11.2
	c8.5,0,14.3,1.8,17.7,5.4c1.4,3,1.4,5.7,0,8.3c-2.3,4.4-6.5,6.9-12.7,7.2c-15.9,2.6-27-0.2-33.2-8.3c-0.3-0.3-0.9-0.8-1.7-1.2
	c-4.8-3.9-10.1-4.2-16-0.5c-6.3,3.8-8.8,8.6-7.2,14.9c2.3,8.2,9.5,15.3,21.6,21.1c15.1,6.3,32.3,6.3,51.9,0
	c4.4-1.4,8.6-3.6,12.7-6.6c10-7.7,14.6-17.5,14.3-29.4c0.3-7.7-1.8-14.9-6.6-21.7c-7.4-10.7-16.9-16.6-28.7-17.8
	c-3-0.8-7.4-1.1-13.1-1.1c-10.1,0.5-17.2-0.9-21.6-3.9c-1.8-3.3-2.3-6.5-1.2-9.5c2.3-5.4,6.5-8.6,12.7-9.4c0.3-0.3,0.9-0.6,1.8-0.6
	c11.3-1.4,19.6,1.7,24.9,9.4c3.6,4.2,8.2,5.4,13.7,3.9c6.3-1.8,9.8-5.4,10.6-11.2c1.8-8.9-3.5-16.9-16-23.9c-7.9-3.9-17.1-6-27.6-6
	h-1.4V363.5z M1099.1,452.7c-1.2-2.9-1.7-6.6-1.7-11v-17.5c0-15.4,3.8-24.8,11.5-28.5c3.3-1.8,6.6-2.6,10.4-2.3h1.7l5.9,1.2
	c11.2,5.1,16.9,16.6,16.9,34.6c0,15.7-4.1,26.6-11.9,32.5c-3.6,2.6-7.2,3.9-10.9,3.9C1108.9,463.6,1101.7,459.3,1099.1,452.7z
	 M1122.5,365v-0.6h-1.7c-9.1-0.8-17.7,1.1-25.7,5.4c-12.4,6.6-20.4,18.6-24,35.6c-1.5,5.9-2.1,12.1-2.1,18.6v106.5
	c0,5.4,2.1,9.7,6.5,12.5c5.1,2.9,10.1,2.9,15.3,0c4.4-3,6.5-7.1,6.5-12.5v-41.7c8,3.6,15.9,5.4,23.6,5.4c10.6-1.1,19.5-4.1,26.7-8.8
	c13.4-9.2,21.6-23.7,24.6-43.3c0.3-3.9,0.6-8.5,0.6-13.1c0-26-8.5-44.5-25.1-56C1140,367.7,1131.6,365,1122.5,365z"/>
<path id="Logo" fill="#FFFFFF" d="M7.5,379.6c-6.3,5.1-8.8,11.3-6.9,18.6c8.9,40.6,18.4,72.9,28.7,96.9c0.5,1.7,1.1,3.2,2,4.4
	c8,17.1,17.5,27.5,28.1,30.8c2.1,0.9,4.2,1.2,6.3,1.2c9.8,0.5,17.7-3.5,23.6-11.5c1.7-2.1,3.5-4.5,5.1-7.1
	c5.6-8.6,12.5-24.6,21.1-48c7.7-23.7,13.9-45.8,18.6-66c0.6-2.6,1.1-4.2,2.1-8.2c10.6-40.3,53.6-34,62.8,6.3l1.2,2.6
	c3.5,6.3,8.6,9.4,15.9,8.9c3.9,0.5,7.2-0.8,10.3-3.2c6.3-5.1,8.6-11.3,6.9-18.4c-8.8-40.3-18.3-72.5-28.5-96.2
	c-0.5-1.7-1.1-3.2-2-4.4c-8-17.1-17.4-27.2-27.9-30.7c-2.1-0.9-4.2-1.2-6.3-1.2c-9.8-0.5-17.7,3.5-23.6,11.5c-1.7,2.1-3.3,4.4-5,6.9
	c-5.4,8.5-12.5,24.5-21,47.7c-7.5,23.3-13.6,44.7-18.3,64.6c-0.8,3.3-1.5,5.4-2.4,8.9c-10.7,40.6-53.9,34.3-63.3-6.3l-1.2-2.6
	c-3.5-6.3-8.8-9.4-15.9-8.9C13.9,376,10.6,377.2,7.5,379.6z"/>
</svg>
